<?xml version="1.0" standalone="no"?>
<!DOCTYPE svg PUBLIC "-//W3C//DTD SVG 20010904//EN"
 "http://www.w3.org/TR/2001/REC-SVG-20010904/DTD/svg10.dtd">
<svg version="1.0" xmlns="http://www.w3.org/2000/svg"
 width="700.000000pt" height="700.000000pt" viewBox="0 0 700.000000 700.000000"
 preserveAspectRatio="xMidYMid meet">
<metadata>
Created by potrace 1.14, written by Peter Selinger 2001-2017
</metadata>
<g transform="translate(0.000000,700.000000) scale(0.100000,-0.100000)"
fill="#000000" stroke="none">
<path d="M2267 6414 c-1 -1 -65 -4 -142 -7 -394 -17 -649 -135 -800 -371 -89
-139 -135 -318 -151 -586 -7 -125 -8 -3793 0 -3897 25 -357 87 -540 239 -701
127 -133 289 -207 547 -247 104 -16 389 -19 1530 -19 1138 -1 1446 3 1550 19
254 40 399 103 530 234 164 162 236 366 256 717 9 149 9 3788 0 3894 -21 273
-45 378 -115 520 -76 152 -198 269 -356 341 -68 31 -184 65 -250 73 -38 5
-182 22 -215 25 -21 2 -2620 7 -2623 5z m323 -586 c0 -4 6 -5 14 -2 22 8 306
10 306 2 0 -4 6 -5 14 -2 22 8 306 10 306 2 0 -4 6 -5 14 -2 23 9 306 10 306
1 0 -5 4 -5 10 -2 9 5 479 10 505 5 6 -1 15 -1 20 0 12 2 206 2 220 0 6 -1 15
-1 20 0 26 6 102 5 118 -3 9 -4 17 -4 17 0 0 7 74 9 90 2 3 -1 9 0 15 1 13 2
193 -1 280 -5 142 -7 257 -31 299 -62 51 -37 80 -120 92 -261 3 -37 7 -77 9
-89 2 -13 -1 -23 -7 -23 -7 0 -7 -4 1 -13 17 -21 15 -3777 -2 -3778 -9 0 -9
-2 1 -6 6 -2 10 -8 8 -11 -2 -4 -7 -43 -11 -86 -4 -43 -9 -88 -11 -100 -3 -12
-7 -32 -10 -46 -9 -45 -52 -107 -86 -123 -18 -9 -36 -13 -40 -11 -4 3 -8 1 -8
-4 0 -5 -6 -9 -12 -10 -15 -1 -64 -9 -93 -15 -68 -16 -355 -19 -1495 -18 -701
0 -1300 3 -1330 5 -97 8 -190 21 -197 26 -2 2 -6 3 -10 4 -56 14 -71 19 -88
34 -22 19 -63 73 -63 85 0 4 -5 31 -11 60 -6 28 -14 70 -18 92 -4 22 -8 913
-10 1979 -2 1541 0 1941 10 1948 9 6 9 8 -1 8 -7 0 -10 5 -7 11 4 6 9 38 11
72 6 109 21 187 35 187 5 0 8 3 7 8 -5 18 15 53 27 48 9 -3 12 0 9 8 -5 14 54
48 68 40 4 -3 8 -1 8 4 0 6 24 13 53 17 28 4 61 9 72 12 11 2 101 7 200 10 99
3 181 6 182 7 6 5 163 0 163 -6z"/>
<path d="M4306 5253 c-1 -1 -404 -3 -894 -3 -655 -1 -891 -4 -886 -12 5 -8 1
-9 -10 -5 -9 4 -14 3 -11 -2 3 -5 -4 -13 -16 -16 -29 -10 -87 -63 -114 -105
-41 -64 -51 -165 -26 -247 5 -17 6 -35 3 -39 -4 -4 -2 -4 5 0 6 3 14 -1 17
-12 18 -56 145 -142 209 -142 19 0 26 -4 21 -12 -5 -8 -3 -8 7 -2 20 13 89 13
89 0 0 -8 3 -8 8 0 4 5 18 10 32 10 14 0 28 -5 32 -10 5 -8 8 -7 8 0 0 15 80
14 80 0 0 -6 5 -4 10 4 9 13 11 13 20 0 5 -9 10 -10 10 -3 0 13 87 12 109 -1
9 -6 12 -5 7 2 -4 7 18 10 74 9 46 -1 80 -6 80 -12 0 -6 3 -6 8 1 9 14 184 14
194 0 5 -8 8 -7 8 1 0 13 87 12 109 -1 9 -6 12 -5 7 2 -4 7 7 10 34 9 22 -1
40 -6 40 -12 0 -6 3 -6 8 1 9 14 82 14 82 0 0 -8 3 -8 8 0 4 5 18 10 32 10 14
0 28 -5 32 -10 5 -8 8 -7 8 0 0 15 80 14 80 0 0 -6 5 -4 10 4 9 13 11 13 20 0
5 -9 10 -10 10 -3 0 13 87 12 109 -1 9 -6 12 -5 7 2 -4 7 18 10 74 9 46 -1 80
-6 80 -12 0 -6 3 -6 8 1 9 14 184 14 194 0 5 -8 8 -8 8 0 0 6 21 11 49 11 102
2 213 80 253 179 11 27 24 56 28 65 5 9 6 19 3 23 -3 3 -7 23 -8 43 -8 113
-66 198 -170 247 -33 16 -179 38 -189 29z"/>
<path d="M4315 4280 c-3 -5 -1 -10 4 -10 6 0 11 5 11 10 0 6 -2 10 -4 10 -3 0
-8 -4 -11 -10z"/>
<path d="M4630 4279 c0 -5 5 -7 10 -4 6 3 10 8 10 11 0 2 -4 4 -10 4 -5 0 -10
-5 -10 -11z"/>
<path d="M4790 4119 c0 -5 5 -7 10 -4 6 3 10 8 10 11 0 2 -4 4 -10 4 -5 0 -10
-5 -10 -11z"/>
<path d="M2563 4078 c-29 -5 -53 -13 -53 -18 0 -4 -11 -11 -24 -14 -37 -9 -97
-75 -127 -141 -63 -139 -2 -304 138 -376 63 -33 188 -34 253 -2 94 45 154 130
166 233 7 66 7 64 4 70 -1 3 -3 15 -6 28 -12 64 -112 192 -150 192 -8 0 -14 4
-14 8 0 5 -6 9 -12 10 -7 0 -24 3 -38 7 -43 11 -83 12 -137 3z"/>
<path d="M3433 4074 c-177 -46 -267 -217 -203 -387 27 -71 101 -149 155 -163
14 -3 23 -9 21 -13 -2 -3 8 -6 22 -7 15 0 45 -2 67 -3 90 -5 189 43 246 121
99 138 52 343 -97 425 -35 19 -56 25 -134 37 -14 2 -49 -3 -77 -10z"/>
<path d="M4325 4077 c-22 -4 -50 -9 -62 -10 -12 -1 -20 -4 -17 -6 2 -2 -17
-17 -41 -33 -75 -49 -125 -153 -120 -244 6 -98 36 -159 107 -217 81 -66 184
-83 288 -47 30 10 58 16 62 13 5 -2 7 -1 6 4 -2 5 16 28 40 53 23 24 42 48 42
53 0 4 5 5 12 1 6 -4 8 -3 5 3 -4 6 0 29 7 51 22 61 15 167 -13 221 -62 118
-195 185 -316 158z"/>
<path d="M2572 3209 c-4 -3 -29 -14 -55 -23 -105 -39 -181 -149 -180 -261 1
-89 6 -136 13 -124 4 6 13 -4 20 -22 8 -18 28 -47 46 -65 17 -18 30 -36 28
-39 -2 -3 -1 -3 2 -1 3 3 23 -4 43 -15 113 -59 249 -38 341 51 69 67 83 104
84 215 1 53 -5 81 -22 116 -41 85 -132 155 -209 161 -7 1 -13 4 -13 7 0 8 -89
8 -98 0z"/>
<path d="M3412 3195 c-18 -8 -36 -14 -40 -15 -4 0 -20 -10 -37 -22 -16 -13
-34 -22 -38 -20 -5 1 -6 -2 -2 -8 3 -5 2 -10 -4 -10 -12 0 -52 -64 -68 -109
-6 -19 -11 -69 -10 -110 3 -83 28 -140 84 -193 32 -30 113 -81 113 -72 0 4 6
2 13 -3 6 -5 44 -8 83 -7 72 2 153 32 183 68 7 9 18 13 24 9 5 -3 7 -1 3 5 -3
5 -3 12 2 14 17 7 51 66 64 113 53 183 -79 365 -270 371 -40 2 -80 -3 -100
-11z"/>
<path d="M4318 3205 c-2 -3 -13 -6 -24 -8 -37 -5 -123 -66 -154 -108 -17 -23
-35 -59 -42 -80 -6 -23 -15 -36 -22 -32 -8 5 -8 3 -1 -8 12 -16 13 -108 1
-127 -4 -7 -3 -12 1 -12 5 0 7 -44 5 -97 -3 -99 -2 -142 2 -200 2 -18 -1 -33
-6 -33 -5 0 -6 -5 -2 -12 10 -16 11 -99 1 -120 -4 -10 -4 -18 0 -18 10 0 9
-293 -1 -308 -4 -7 -3 -12 1 -12 5 0 10 -14 11 -31 7 -93 93 -198 193 -233
122 -44 271 9 341 122 11 17 23 30 26 28 4 -2 8 8 10 22 2 21 13 533 13 587
-3 392 -7 461 -27 506 -48 105 -146 171 -260 175 -34 2 -64 1 -66 -1z"/>
<path d="M2624 2342 c3 -5 -16 -12 -42 -15 -99 -12 -169 -62 -218 -159 -64
-123 -17 -299 97 -367 49 -30 74 -41 92 -41 9 0 17 -5 17 -11 0 -5 3 -8 8 -5
4 2 30 5 57 7 63 3 131 26 163 53 51 44 82 78 82 92 0 8 4 14 9 14 5 0 12 15
15 34 4 19 12 37 19 39 7 3 8 6 2 6 -6 1 -9 25 -9 53 2 59 -25 142 -56 176
-12 12 -17 22 -13 22 4 0 -11 13 -35 28 -23 16 -40 31 -38 33 3 3 -3 5 -12 6
-26 2 -104 24 -126 35 -11 6 -16 6 -12 0z"/>
<path d="M3488 2335 c-2 -2 -16 -5 -33 -8 -58 -8 -95 -20 -95 -28 0 -5 -5 -9
-12 -9 -7 0 -34 -22 -60 -50 -34 -36 -52 -65 -64 -106 -19 -67 -15 -165 9
-214 9 -18 14 -37 10 -43 -3 -5 -1 -7 4 -4 6 4 20 -8 32 -26 11 -17 21 -28 21
-24 0 5 14 -3 31 -17 44 -37 176 -71 214 -56 3 2 8 3 13 4 113 27 194 101 222
206 6 25 16 53 21 62 5 10 5 19 -1 23 -5 3 -9 13 -8 23 0 56 -40 140 -88 183
-14 13 -35 32 -45 42 -10 9 -19 15 -19 12 0 -3 -17 2 -37 10 -36 13 -109 26
-115 20z"/>
</g>
</svg>
